<?xml version="1.0" standalone="no"?>
<!DOCTYPE svg PUBLIC "-//W3C//DTD SVG 20010904//EN"
 "http://www.w3.org/TR/2001/REC-SVG-20010904/DTD/svg10.dtd">
<svg version="1.0" xmlns="http://www.w3.org/2000/svg"
 width="1870.000000pt" height="1870.000000pt" viewBox="0 0 1870.000000 1870.000000"
 preserveAspectRatio="xMidYMid meet">
<metadata>
Created by potrace 1.11, written by Peter Selinger 2001-2013
</metadata>
<g transform="translate(0.000000,1870.000000) scale(0.100000,-0.100000)"
fill="#000000" stroke="none">
<path d="M8300 18683 l-145 -4 0 -302 c0 -456 -45 -754 -160 -1063 -194 -517
-523 -779 -1038 -825 -248 -22 -498 35 -708 161 -114 69 -178 119 -298 235
-205 199 -371 434 -595 845 -38 69 -70 127 -72 129 -3 3 -1526 -931 -1568
-962 -18 -13 -15 -19 52 -130 237 -386 414 -818 485 -1179 18 -94 22 -147 22
-318 -1 -182 -3 -215 -24 -290 -129 -480 -565 -739 -1162 -691 -301 24 -571
93 -939 238 -144 57 -444 198 -476 224 -8 6 -90 -133 -266 -448 -140 -252
-344 -618 -453 -812 -122 -218 -194 -356 -186 -359 28 -9 346 -227 456 -312
511 -396 814 -779 917 -1160 29 -103 30 -314 4 -415 -41 -158 -132 -311 -256
-435 -319 -315 -942 -513 -1718 -546 l-162 -7 2 -936 3 -936 195 -6 c635 -21
1204 -163 1534 -383 210 -140 341 -319 387 -531 21 -96 16 -303 -10 -410 -95
-395 -399 -816 -896 -1244 -99 -85 -236 -192 -419 -326 l-27 -20 271 -480
c149 -264 315 -556 367 -650 53 -93 111 -195 128 -225 18 -30 58 -101 89 -157
31 -57 61 -103 66 -103 5 0 39 18 75 40 162 99 516 263 710 328 307 104 513
142 763 142 217 0 363 -30 516 -107 182 -91 330 -239 406 -406 131 -291 116
-664 -46 -1139 -88 -257 -242 -584 -387 -822 l-65 -105 236 -154 c131 -85 264
-172 297 -193 33 -21 280 -172 549 -335 l489 -296 65 86 c220 291 528 616 758
801 484 389 893 514 1258 383 215 -77 419 -264 550 -506 190 -351 296 -866
296 -1446 l0 -124 38 7 c20 3 243 6 495 6 l457 0 0 1818 0 1819 -152 7 c-755
34 -1450 216 -2138 561 -423 211 -786 454 -1154 771 -167 144 -492 472 -627
634 -887 1060 -1360 2374 -1359 3775 1 866 195 1676 590 2460 301 596 619
1035 1094 1511 469 468 924 797 1506 1088 675 337 1320 504 2095 542 l140 7 3
1835 c3 1523 1 1836 -10 1843 -12 8 -503 9 -848 2z"/>
<path d="M9510 14216 l0 -4476 1465 0 1465 0 0 73 c0 127 30 524 56 747 200
1707 889 3283 2088 4775 226 281 518 613 754 856 67 70 122 131 122 137 0 14
-167 171 -304 286 -935 786 -2646 1600 -3883 1846 -54 10 -161 28 -238 39
-222 33 -454 69 -675 108 -300 51 -375 60 -580 67 -102 4 -204 9 -227 12 l-43
5 0 -4475z"/>
<path d="M15985 15828 c-17 -20 -107 -123 -201 -229 -1188 -1350 -1943 -2663
-2328 -4049 -107 -386 -201 -867 -240 -1225 -24 -216 -36 -349 -42 -462 l-7
-133 2763 0 2762 0 -6 108 c-6 93 -23 271 -42 437 -126 1128 -436 2213 -904
3170 -400 819 -969 1630 -1611 2299 l-115 119 -29 -35z"/>
<path d="M8995 11494 c-34 -317 -261 -581 -572 -666 -66 -18 -107 -21 -263
-22 -174 0 -219 4 -430 40 l-35 6 -169 -243 c-118 -169 -166 -246 -160 -255
150 -213 200 -300 245 -434 29 -83 33 -108 34 -200 0 -122 -15 -176 -76 -270
-73 -114 -241 -256 -401 -340 -27 -14 -48 -29 -48 -35 1 -5 29 -129 63 -275
l63 -265 139 -12 c228 -19 345 -51 455 -125 97 -65 152 -152 182 -292 19 -90
4 -314 -30 -446 -16 -63 -29 -116 -28 -117 3 -3 488 -293 491 -293 2 0 8 14
14 31 20 58 103 170 163 220 103 86 198 123 446 175 l82 17 0 274 c0 210 -3
274 -12 277 -7 2 -44 11 -81 20 -156 38 -356 156 -486 285 -229 227 -334 508
-318 846 15 288 124 520 338 719 144 133 370 256 517 281 l42 7 0 579 0 579
-79 0 -79 0 -7 -66z"/>
<path d="M9510 4479 l0 -4470 288 3 287 4 360 67 c799 149 1185 241 1710 409
1027 328 1910 776 2718 1381 194 145 526 417 576 471 l24 26 -134 138 c-171
175 -311 327 -480 522 -1391 1606 -2171 3308 -2373 5180 -20 185 -46 550 -46
658 l0 82 -1465 0 -1465 0 0 -4471z"/>
<path d="M13160 8922 c0 -15 7 -109 15 -207 169 -2021 1026 -3863 2633 -5664
81 -91 161 -180 178 -200 l31 -35 100 105 c430 449 849 983 1165 1488 819
1306 1276 2756 1403 4454 l7 87 -2766 0 -2766 0 0 -28z"/>
</g>
</svg>
